<svg id="svg" version="1.1" xmlns="http://www.w3.org/2000/svg" xmlns:xlink="http://www.w3.org/1999/xlink" width="400" height="385.8585858585858" viewBox="0, 0, 400,385.8585858585858"><g id="svgg"><path id="path0" d="M0.000 193.050 L 0.000 386.100 200.000 386.100 L 400.000 386.100 400.000 193.050 L 400.000 0.000 200.000 0.000 L 0.000 0.000 0.000 193.050 M270.593 103.475 C 271.284 104.006,272.666 105.190,273.665 106.107 L 275.483 107.774 275.603 123.385 C 275.706 136.774,275.804 138.996,276.288 138.996 C 276.599 138.996,277.016 139.424,277.214 139.946 C 277.413 140.468,277.935 141.256,278.375 141.695 C 278.815 142.135,279.277 143.004,279.401 143.627 C 279.525 144.249,280.041 145.029,280.547 145.361 C 281.214 145.798,281.467 146.320,281.467 147.262 C 281.467 148.200,281.720 148.725,282.379 149.157 C 282.985 149.554,283.375 150.282,283.542 151.325 L 283.793 152.896 291.336 152.896 C 298.855 152.896,301.158 153.259,301.158 154.443 C 301.158 154.646,301.605 154.924,302.152 155.061 C 302.698 155.198,303.302 155.723,303.494 156.227 C 303.685 156.731,304.101 157.143,304.417 157.143 C 305.722 157.143,305.792 158.475,305.792 183.391 C 305.792 208.963,305.708 210.425,304.245 210.425 C 304.042 210.425,303.764 210.872,303.626 211.418 C 303.489 211.964,302.965 212.568,302.461 212.760 C 301.957 212.952,301.544 213.378,301.544 213.707 C 301.544 214.819,299.591 215.058,290.515 215.058 L 281.467 215.058 281.467 216.041 C 281.467 216.581,281.076 217.415,280.598 217.893 C 280.121 218.371,279.516 219.232,279.255 219.806 C 278.994 220.380,278.512 220.849,278.184 220.849 C 277.856 220.849,277.422 221.284,277.220 221.815 C 277.018 222.346,276.584 222.780,276.255 222.780 C 275.926 222.780,275.497 223.199,275.302 223.712 C 275.107 224.225,274.617 224.749,274.212 224.878 C 273.807 225.006,273.280 225.542,273.040 226.069 C 272.800 226.596,272.408 227.027,272.168 227.027 C 271.929 227.027,271.206 227.471,270.562 228.013 C 269.917 228.555,268.909 229.095,268.320 229.212 C 267.713 229.334,267.167 229.743,267.059 230.157 C 266.954 230.559,266.591 230.888,266.252 230.888 C 265.699 230.888,265.635 232.657,265.614 248.552 C 265.585 270.703,265.789 269.452,261.476 273.953 L 259.825 275.676 234.801 275.676 L 209.777 275.676 208.333 274.614 C 207.540 274.030,206.085 272.808,205.100 271.899 L 203.311 270.246 203.153 262.922 L 202.996 255.598 198.795 255.598 L 194.595 255.598 194.595 262.495 L 194.595 269.392 193.436 270.849 C 192.799 271.651,192.278 272.461,192.278 272.650 C 192.278 272.838,191.844 273.157,191.313 273.359 C 190.782 273.561,190.347 273.985,190.347 274.301 C 190.347 275.606,189.017 275.676,163.987 275.676 L 139.120 275.676 137.677 274.614 C 136.883 274.030,135.422 272.802,134.430 271.885 L 132.625 270.218 132.510 252.859 L 132.395 235.499 127.491 230.536 C 122.257 225.240,120.463 223.058,120.463 221.990 C 120.463 221.624,120.029 221.040,119.498 220.692 C 118.777 220.219,118.533 219.722,118.533 218.726 C 118.533 217.745,118.288 217.232,117.609 216.787 C 116.965 216.365,116.608 215.672,116.433 214.502 C 116.259 213.344,115.965 212.766,115.485 212.640 C 114.722 212.441,114.286 210.889,114.286 208.374 C 114.286 207.287,114.024 206.527,113.431 205.896 C 112.660 205.076,112.560 204.497,112.421 200.030 L 112.267 195.075 107.701 194.802 C 103.446 194.548,103.093 194.466,102.524 193.597 C 102.073 192.909,101.563 192.664,100.579 192.664 C 99.583 192.664,99.086 192.420,98.613 191.699 C 98.175 191.030,97.631 190.734,96.840 190.734 C 95.136 190.734,86.100 181.379,86.100 179.615 C 86.100 179.302,85.666 178.644,85.135 178.152 C 84.499 177.562,84.170 176.842,84.170 176.039 C 84.170 175.319,83.793 174.374,83.247 173.725 C 82.143 172.413,81.595 164.034,81.951 153.933 L 82.153 148.213 83.912 146.597 C 85.759 144.901,87.062 143.835,88.031 143.230 C 89.987 142.009,99.614 142.984,99.614 144.403 C 99.614 144.586,99.976 144.851,100.419 144.991 C 100.862 145.132,101.400 145.751,101.615 146.368 C 101.830 146.986,102.172 147.490,102.374 147.490 C 103.459 147.490,103.861 150.254,103.861 157.710 C 103.861 164.775,103.911 165.300,104.645 166.035 C 105.077 166.467,105.532 167.330,105.656 167.954 C 105.781 168.578,106.201 169.190,106.590 169.313 C 106.978 169.437,107.403 169.872,107.532 170.281 C 107.676 170.733,108.361 171.185,109.277 171.431 C 110.106 171.655,110.943 172.120,111.136 172.465 C 111.631 173.349,112.741 172.815,112.741 171.694 C 112.741 171.189,113.068 170.480,113.467 170.119 C 113.915 169.714,114.283 168.693,114.429 167.453 C 114.894 163.490,115.171 162.341,115.881 161.434 C 116.278 160.928,116.602 160.213,116.602 159.846 C 116.602 159.478,116.965 158.717,117.407 158.154 C 117.850 157.591,118.380 156.524,118.584 155.783 C 118.789 155.042,119.274 154.132,119.662 153.762 C 120.050 153.392,120.485 152.707,120.628 152.240 C 120.772 151.773,121.215 151.287,121.615 151.161 C 122.014 151.034,122.453 150.414,122.592 149.782 C 122.731 149.150,123.687 147.769,124.716 146.712 C 125.746 145.655,126.696 144.451,126.827 144.037 C 126.959 143.622,127.396 143.178,127.799 143.050 C 128.202 142.922,128.643 142.469,128.778 142.043 C 128.913 141.617,129.443 141.109,129.956 140.914 C 130.469 140.719,130.888 140.290,130.888 139.961 C 130.888 139.632,131.322 139.198,131.853 138.996 C 132.384 138.794,132.819 138.361,132.819 138.032 C 132.819 137.704,133.253 137.237,133.784 136.995 C 134.315 136.753,134.749 136.422,134.749 136.259 C 134.749 135.530,136.079 134.749,137.322 134.749 C 138.350 134.749,138.731 134.563,138.881 133.990 C 138.990 133.572,139.393 133.131,139.775 133.009 C 140.158 132.888,140.746 132.369,141.082 131.856 C 141.454 131.289,142.235 130.822,143.079 130.664 C 143.841 130.521,144.877 129.992,145.381 129.488 C 145.889 128.979,146.757 128.571,147.332 128.571 C 147.940 128.571,148.736 128.173,149.262 127.606 C 149.836 126.986,150.574 126.641,151.324 126.641 C 152.144 126.641,152.680 126.353,153.124 125.676 C 153.574 124.989,154.106 124.709,154.967 124.705 C 156.342 124.698,156.907 124.401,157.233 123.515 C 157.399 123.062,158.186 122.837,160.180 122.670 C 162.092 122.509,163.234 122.195,164.022 121.613 C 164.871 120.985,165.914 120.731,168.320 120.566 C 170.445 120.420,171.562 120.178,171.694 119.834 C 171.965 119.128,174.289 118.538,176.809 118.535 C 178.452 118.533,179.108 118.344,179.832 117.664 L 180.757 116.795 200.000 116.795 C 219.068 116.795,219.251 116.803,220.143 117.614 C 221.857 119.175,231.372 119.278,231.859 117.742 C 231.984 117.349,232.416 116.923,232.819 116.795 C 233.222 116.667,233.662 116.214,233.797 115.788 C 233.932 115.362,234.462 114.854,234.975 114.659 C 235.488 114.464,235.907 114.036,235.907 113.707 C 235.907 113.378,236.342 112.943,236.873 112.741 C 237.403 112.539,237.838 112.116,237.838 111.799 C 237.838 111.047,239.038 110.425,240.489 110.425 C 241.276 110.425,241.719 110.196,241.873 109.711 C 241.998 109.319,242.531 108.801,243.058 108.561 C 243.584 108.321,244.015 107.868,244.015 107.555 C 244.015 107.073,246.089 106.187,247.235 106.180 C 247.414 106.179,247.855 105.813,248.216 105.367 C 248.723 104.740,249.457 104.510,251.463 104.349 C 253.240 104.207,254.054 103.982,254.054 103.634 C 254.054 101.886,268.348 101.748,270.593 103.475 M249.375 132.477 C 247.120 134.749,245.170 137.028,245.041 137.542 C 244.912 138.057,244.368 138.950,243.832 139.529 C 243.296 140.107,242.857 140.832,242.857 141.140 C 242.857 141.447,242.674 141.699,242.449 141.699 C 242.225 141.699,241.546 142.241,240.941 142.904 L 239.840 144.109 235.074 144.149 C 229.769 144.193,227.062 143.824,226.377 142.966 C 226.124 142.650,224.912 142.274,223.673 142.128 C 222.376 141.975,220.937 141.518,220.269 141.047 C 219.229 140.313,218.392 140.207,211.983 139.989 C 205.613 139.773,204.767 139.666,204.043 138.985 C 202.879 137.892,199.038 137.905,197.867 139.005 C 197.105 139.721,196.346 139.807,188.869 140.032 C 181.033 140.267,180.681 140.311,180.151 141.121 C 179.668 141.857,179.129 141.995,175.910 142.207 C 173.036 142.395,172.063 142.609,171.497 143.175 C 171.074 143.598,169.910 144.015,168.710 144.174 C 167.254 144.367,166.392 144.724,165.775 145.390 C 165.035 146.189,164.546 146.332,162.567 146.332 C 161.282 146.332,160.232 146.493,160.232 146.691 C 160.232 147.434,158.975 148.263,157.846 148.263 C 156.940 148.263,156.266 148.698,154.869 150.186 C 153.673 151.460,152.624 152.197,151.765 152.369 C 150.472 152.628,142.085 160.448,142.085 161.395 C 142.085 161.614,141.651 161.991,141.120 162.232 C 140.515 162.508,140.154 162.990,140.154 163.523 C 140.154 163.991,139.742 164.788,139.238 165.295 C 138.734 165.802,138.196 166.799,138.041 167.510 C 137.886 168.222,137.457 169.107,137.088 169.476 C 136.419 170.145,135.521 175.939,135.521 179.586 C 135.521 180.568,135.233 181.519,134.749 182.134 C 133.611 183.581,133.590 192.454,134.721 193.892 C 135.311 194.642,135.549 195.911,135.874 200.025 C 136.229 204.524,136.387 205.283,137.061 205.742 C 137.488 206.033,137.838 206.486,137.838 206.747 C 137.838 207.009,138.280 207.700,138.820 208.283 C 139.361 208.867,139.903 209.842,140.025 210.452 C 140.147 211.061,140.564 211.661,140.953 211.784 C 141.341 211.908,141.764 212.338,141.892 212.741 C 142.020 213.144,142.454 213.579,142.857 213.707 C 143.260 213.834,143.700 214.288,143.836 214.714 C 143.971 215.140,144.501 215.648,145.014 215.843 C 145.526 216.038,145.946 216.459,145.946 216.778 C 145.946 217.098,146.382 217.469,146.915 217.603 C 147.487 217.747,147.974 218.209,148.106 218.732 C 148.228 219.219,148.674 219.709,149.096 219.819 C 149.519 219.930,149.955 220.366,150.065 220.788 C 150.176 221.211,150.684 221.661,151.195 221.789 C 151.790 221.939,152.124 222.301,152.124 222.797 C 152.124 223.255,152.495 223.712,153.033 223.917 C 154.345 224.416,154.431 225.445,154.436 240.644 L 154.440 254.068 163.610 253.965 L 172.780 253.861 172.973 246.894 C 173.189 239.095,172.976 239.729,176.764 235.601 L 178.431 233.784 198.453 233.784 L 218.476 233.784 219.566 234.656 C 220.166 235.136,221.064 235.702,221.562 235.915 C 222.061 236.128,222.557 236.642,222.666 237.057 C 222.774 237.473,223.202 237.920,223.616 238.051 C 224.862 238.446,225.097 239.887,225.097 247.129 L 225.097 254.054 234.363 254.054 L 243.629 254.054 243.629 237.439 C 243.629 220.658,243.822 218.147,245.107 218.147 C 245.305 218.147,245.682 217.625,245.946 216.988 C 246.210 216.351,246.669 215.830,246.966 215.830 C 247.264 215.830,247.698 215.410,247.932 214.898 C 248.357 213.965,249.273 213.529,250.824 213.519 C 251.278 213.516,251.933 213.079,252.281 212.548 C 252.756 211.823,253.249 211.583,254.266 211.583 C 255.352 211.583,255.690 211.394,255.985 210.618 C 256.186 210.087,256.532 209.653,256.752 209.653 C 257.412 209.653,261.653 205.244,261.972 204.226 C 262.135 203.707,262.678 202.791,263.180 202.190 C 263.682 201.590,264.093 200.687,264.093 200.183 C 264.093 199.680,264.521 198.805,265.046 198.239 C 265.570 197.674,266.100 196.892,266.224 196.502 C 266.347 196.112,266.778 195.688,267.181 195.560 C 267.584 195.432,268.017 195.005,268.142 194.611 C 268.492 193.506,269.171 193.393,276.937 193.155 L 284.184 192.932 284.080 183.821 L 283.977 174.710 276.834 174.495 C 272.905 174.377,269.673 174.247,269.651 174.206 C 269.365 173.676,267.391 172.201,266.969 172.201 C 266.661 172.201,266.409 172.017,266.409 171.793 C 266.409 171.569,265.878 170.900,265.230 170.308 C 264.125 169.298,264.036 169.009,263.823 165.727 C 263.630 162.748,263.489 162.195,262.879 162.036 C 262.330 161.892,262.162 161.484,262.162 160.292 C 262.162 159.101,261.890 158.437,261.004 157.467 C 260.367 156.769,259.846 155.823,259.846 155.364 C 259.846 154.856,259.545 154.452,259.075 154.329 C 258.652 154.218,258.185 153.807,258.038 153.415 C 257.892 153.023,256.892 151.872,255.816 150.856 L 253.861 149.009 253.668 138.677 L 253.475 128.346 249.375 132.477 M240.689 164.189 C 241.154 164.773,241.739 165.251,241.989 165.251 C 242.239 165.251,242.650 165.642,242.902 166.120 C 243.154 166.597,243.769 167.371,244.267 167.839 C 245.874 169.346,245.498 180.309,243.839 180.309 C 243.520 180.309,243.149 180.745,243.015 181.277 C 242.869 181.859,242.409 182.337,241.863 182.474 C 241.363 182.600,240.850 183.032,240.722 183.435 C 240.174 185.161,229.815 185.375,228.367 183.691 C 227.904 183.153,227.153 182.595,226.697 182.450 C 226.242 182.306,225.869 181.964,225.869 181.691 C 225.869 181.419,225.334 180.636,224.681 179.953 L 223.493 178.710 223.619 173.502 C 223.735 168.728,223.814 168.240,224.569 167.641 C 225.022 167.282,225.592 166.597,225.837 166.120 C 226.082 165.642,226.532 165.251,226.839 165.251 C 227.145 165.251,227.673 164.827,228.013 164.308 C 229.233 162.447,239.226 162.353,240.689 164.189 " stroke="none" fill="#fcfcfc" fill-rule="evenodd"></path><path id="path1" d="M262.903 103.627 C 262.607 103.934,259.534 104.592,256.236 105.056 C 254.782 105.260,252.610 105.834,251.410 106.330 C 250.210 106.826,248.709 107.356,248.075 107.508 C 247.441 107.659,246.018 108.638,244.913 109.683 C 243.706 110.824,242.549 111.583,242.017 111.583 C 241.397 111.583,239.659 113.051,236.240 116.462 C 230.815 121.876,229.161 122.640,226.097 121.151 C 224.342 120.298,221.501 119.692,219.203 119.682 C 218.091 119.677,216.486 119.486,215.637 119.258 C 211.450 118.134,200.037 117.717,194.788 118.496 C 191.757 118.946,183.816 119.577,180.227 119.653 C 178.983 119.679,178.190 119.921,177.718 120.420 C 177.198 120.969,176.214 121.217,173.745 121.423 C 171.863 121.580,169.722 122.026,168.726 122.468 C 167.770 122.892,165.886 123.381,164.539 123.556 C 162.995 123.755,161.781 124.153,161.257 124.631 C 160.733 125.109,159.669 125.458,158.385 125.574 C 157.058 125.694,156.046 126.035,155.489 126.551 C 155.018 126.987,153.913 127.535,153.032 127.769 C 152.151 128.003,151.335 128.443,151.218 128.747 C 151.101 129.052,150.374 129.420,149.601 129.565 C 148.828 129.710,147.751 130.240,147.208 130.744 C 146.664 131.248,145.800 131.660,145.287 131.660 C 144.699 131.660,143.604 132.370,142.317 133.588 C 141.160 134.682,139.762 135.619,139.085 135.754 C 137.965 135.979,125.483 148.025,125.483 148.883 C 125.483 149.285,123.653 151.995,122.308 153.585 C 121.718 154.282,121.236 155.086,121.236 155.372 C 121.236 155.657,120.984 156.099,120.676 156.354 C 120.368 156.610,119.907 157.456,119.650 158.236 C 119.393 159.015,118.852 160.101,118.447 160.649 C 118.043 161.197,117.578 162.628,117.416 163.828 C 117.253 165.029,116.828 166.333,116.472 166.726 C 116.088 167.150,115.679 168.601,115.467 170.290 C 115.028 173.788,114.642 174.131,111.153 174.131 C 108.128 174.131,107.205 173.546,104.502 169.917 L 102.896 167.761 102.703 159.642 C 102.520 151.958,102.463 151.464,101.641 150.420 C 101.163 149.813,100.772 149.115,100.772 148.868 C 100.772 146.175,93.058 143.009,90.347 144.590 C 89.817 144.900,88.861 145.404,88.224 145.711 C 86.689 146.450,85.223 148.064,84.158 150.188 C 82.915 152.664,83.197 169.075,84.526 171.607 C 84.967 172.448,85.328 173.614,85.328 174.198 C 85.328 174.782,85.662 175.570,86.069 175.950 C 86.477 176.330,86.935 177.162,87.089 177.799 C 87.398 179.086,87.473 179.176,93.085 185.044 C 96.269 188.372,97.372 189.281,98.627 189.608 C 99.488 189.833,100.381 190.258,100.611 190.553 C 101.181 191.286,102.886 191.892,104.369 191.890 C 105.045 191.889,106.380 192.135,107.336 192.436 C 108.292 192.737,110.113 193.216,111.383 193.500 C 113.440 193.959,113.730 194.143,114.023 195.174 C 114.204 195.811,114.511 196.866,114.705 197.518 C 114.899 198.170,115.063 199.647,115.070 200.800 C 115.088 204.040,115.748 208.394,116.367 209.360 C 116.674 209.839,117.129 211.014,117.378 211.969 C 117.626 212.925,118.145 214.054,118.530 214.479 C 118.916 214.903,119.402 215.883,119.611 216.656 C 119.820 217.429,120.315 218.405,120.710 218.826 C 121.105 219.247,121.950 220.515,122.587 221.645 C 123.224 222.774,125.895 225.881,128.522 228.548 C 134.414 234.529,133.956 232.610,133.968 251.399 C 133.979 269.497,134.231 270.579,138.996 272.916 C 139.527 273.177,140.396 273.644,140.927 273.954 C 142.742 275.017,185.839 274.584,187.767 273.484 C 189.515 272.488,190.884 271.078,191.754 269.381 C 192.101 268.702,192.579 268.023,192.814 267.872 C 193.090 267.695,193.288 265.418,193.368 261.507 C 193.523 253.986,193.156 254.440,199.068 254.440 C 204.922 254.440,204.633 254.081,204.633 261.377 C 204.633 268.658,205.194 269.851,210.232 273.275 L 211.776 274.324 234.200 274.324 C 255.825 274.324,256.678 274.297,258.138 273.556 C 259.645 272.791,262.547 270.014,262.548 269.335 C 262.548 269.140,262.852 268.644,263.224 268.234 C 263.842 267.551,263.916 265.886,264.093 248.649 C 264.305 227.955,264.276 228.185,266.659 228.185 C 267.711 228.185,277.686 218.720,278.652 216.804 C 280.143 213.849,279.969 213.901,288.581 213.891 C 298.180 213.881,300.906 212.892,302.936 208.687 C 303.244 208.050,303.749 207.095,304.059 206.564 C 304.534 205.749,304.622 202.222,304.624 183.977 L 304.626 162.355 303.711 160.425 C 302.740 158.373,300.819 156.308,299.228 155.606 C 298.697 155.371,297.828 154.929,297.297 154.622 C 296.563 154.199,294.790 154.064,289.892 154.060 C 283.077 154.054,282.623 153.942,282.046 152.121 C 281.911 151.698,281.646 151.351,281.457 151.351 C 281.267 151.351,280.902 150.613,280.646 149.710 C 280.389 148.808,279.808 147.635,279.355 147.104 C 278.199 145.751,276.448 143.076,276.448 142.664 C 276.448 142.475,275.970 141.822,275.386 141.213 L 274.324 140.105 274.131 125.361 C 273.899 107.638,274.103 108.391,268.561 104.779 C 267.123 103.843,263.423 103.089,262.903 103.627 M254.834 136.293 C 255.048 145.957,255.473 148.079,257.480 149.504 C 258.100 149.944,259.634 152.044,260.852 154.121 C 261.088 154.522,261.564 155.149,261.912 155.514 C 264.111 157.823,265.251 160.915,265.251 164.571 C 265.251 166.943,267.898 170.760,270.270 171.808 C 270.801 172.042,271.670 172.485,272.201 172.791 C 272.916 173.203,274.584 173.349,278.640 173.353 C 285.952 173.361,285.328 172.370,285.328 183.977 C 285.328 195.589,285.958 194.595,278.604 194.595 C 273.583 194.595,273.030 194.663,272.394 195.367 C 272.009 195.792,271.235 196.139,270.672 196.139 C 270.019 196.139,269.221 196.592,268.464 197.394 C 267.295 198.630,267.026 199.065,265.055 202.896 C 263.123 206.651,259.782 210.811,258.697 210.811 C 258.541 210.811,257.945 211.245,257.372 211.776 C 256.800 212.307,256.113 212.741,255.847 212.741 C 255.580 212.741,254.774 213.176,254.054 213.707 C 253.334 214.237,252.419 214.672,252.020 214.672 C 251.212 214.672,246.718 218.768,246.718 219.505 C 246.718 219.762,246.327 220.470,245.849 221.077 C 244.985 222.176,244.980 222.254,244.868 238.194 C 244.792 248.934,244.618 254.373,244.338 254.710 C 243.761 255.405,225.095 255.442,224.402 254.749 C 224.086 254.433,223.938 252.581,223.938 248.933 C 223.938 244.311,223.824 243.306,223.100 241.577 C 222.309 239.687,219.700 236.680,218.851 236.680 C 218.637 236.680,218.020 236.332,217.480 235.907 C 216.531 235.161,215.914 235.135,199.225 235.135 C 178.269 235.135,179.344 234.883,175.373 240.734 C 174.360 242.226,174.320 242.480,174.208 248.263 C 174.061 255.896,175.118 255.212,163.462 255.212 C 151.567 255.212,152.896 256.991,152.896 241.070 L 152.896 228.643 151.787 226.194 C 151.177 224.847,150.265 223.366,149.760 222.903 C 149.255 222.440,148.637 221.832,148.387 221.552 C 148.137 221.272,147.356 220.566,146.650 219.983 C 141.741 215.932,137.066 210.789,137.066 209.442 C 137.066 209.199,136.717 208.685,136.292 208.300 C 135.866 207.915,135.337 206.889,135.115 206.020 C 134.893 205.151,134.338 203.571,133.880 202.510 C 132.605 199.548,132.588 175.964,133.859 173.543 C 134.308 172.689,134.794 171.125,134.940 170.068 C 135.085 169.011,135.512 167.709,135.888 167.174 C 136.263 166.639,136.696 165.808,136.848 165.327 C 137.001 164.846,137.483 164.120,137.919 163.714 C 138.355 163.308,138.906 162.644,139.143 162.238 C 141.492 158.227,148.127 151.351,149.648 151.351 C 150.289 151.351,151.317 150.697,152.635 149.451 C 153.740 148.406,155.163 147.424,155.797 147.269 C 156.431 147.114,157.441 146.579,158.041 146.080 C 158.641 145.582,159.527 145.174,160.008 145.174 C 160.490 145.174,161.179 144.848,161.540 144.450 C 161.968 143.976,162.988 143.636,164.487 143.466 C 166.036 143.291,167.127 142.917,167.849 142.315 C 168.603 141.687,169.659 141.343,171.429 141.150 C 172.809 140.999,174.353 140.607,174.861 140.278 C 175.368 139.949,177.084 139.519,178.673 139.321 C 180.263 139.124,182.235 138.620,183.055 138.202 C 184.410 137.510,185.628 137.421,196.424 137.219 C 207.917 137.004,211.217 137.173,216.023 138.221 C 217.085 138.452,218.881 138.795,220.015 138.983 C 221.149 139.171,222.365 139.576,222.718 139.882 C 223.071 140.188,224.141 140.562,225.097 140.712 C 226.052 140.862,227.663 141.115,228.677 141.274 C 229.691 141.433,230.725 141.767,230.974 142.017 C 231.224 142.267,231.904 142.471,232.485 142.471 C 233.065 142.471,233.989 142.642,234.538 142.850 C 235.344 143.157,235.682 143.083,236.300 142.464 C 236.721 142.043,237.536 141.699,238.111 141.699 C 239.132 141.699,242.085 139.303,242.085 138.475 C 242.085 136.277,251.243 126.937,253.236 127.103 L 254.633 127.220 254.834 136.293 M232.625 164.404 C 229.808 165.401,226.255 168.167,226.255 169.363 C 226.255 169.620,225.977 170.107,225.638 170.446 C 224.759 171.325,224.507 175.205,225.247 176.448 C 225.564 176.979,226.071 177.934,226.375 178.571 C 230.157 186.499,243.124 183.509,243.903 174.529 C 244.119 172.042,243.883 171.360,241.602 167.896 C 240.144 165.680,234.844 163.618,232.625 164.404 " stroke="none" fill="#15152d" fill-rule="evenodd"></path><path id="path2" d="M259.459 103.124 C 257.654 103.323,255.709 103.749,255.137 104.069 C 254.565 104.389,253.096 104.836,251.873 105.063 C 250.650 105.289,249.227 105.806,248.711 106.212 C 248.195 106.618,247.450 106.950,247.056 106.950 C 246.662 106.950,245.409 107.793,244.271 108.824 C 243.133 109.855,241.697 110.824,241.081 110.978 C 240.392 111.151,238.158 113.027,235.266 115.861 L 230.572 120.463 228.654 120.463 C 227.510 120.463,226.560 120.252,226.301 119.940 C 226.062 119.652,224.781 119.301,223.455 119.160 C 217.587 118.535,215.965 118.269,215.092 117.791 C 212.516 116.379,180.669 117.666,177.605 119.306 C 177.209 119.518,176.460 119.691,175.941 119.691 C 175.422 119.691,174.412 119.930,173.696 120.223 C 172.980 120.515,171.525 120.872,170.463 121.015 C 169.402 121.158,167.490 121.610,166.216 122.018 C 161.991 123.373,159.902 123.938,159.120 123.938 C 158.695 123.938,158.248 124.099,158.126 124.295 C 158.005 124.491,157.408 124.760,156.800 124.894 C 156.191 125.028,155.117 125.562,154.413 126.082 C 153.708 126.602,152.842 127.027,152.489 127.027 C 152.135 127.027,151.205 127.461,150.423 127.992 C 149.641 128.523,148.772 128.958,148.492 128.958 C 148.213 128.958,147.375 129.371,146.631 129.876 C 145.888 130.380,144.680 130.991,143.947 131.233 C 143.215 131.475,141.936 132.368,141.106 133.219 C 140.275 134.070,138.978 134.932,138.224 135.135 C 136.346 135.641,125.275 146.949,123.050 150.634 C 122.583 151.408,121.869 152.537,121.463 153.144 C 119.627 155.890,118.976 157.017,118.710 157.908 C 118.553 158.434,118.082 159.328,117.663 159.894 C 117.245 160.460,116.808 161.767,116.692 162.798 C 116.576 163.828,116.176 165.106,115.804 165.637 C 115.432 166.168,114.942 167.712,114.716 169.068 C 113.694 175.206,109.218 175.048,105.063 168.726 L 103.668 166.602 103.475 158.679 L 103.282 150.756 101.857 148.610 C 98.866 144.105,96.575 142.904,91.778 143.328 C 88.553 143.613,83.746 147.140,83.020 149.754 C 82.222 152.626,82.521 170.805,83.384 171.902 C 83.801 172.433,84.310 173.613,84.515 174.525 C 84.720 175.438,85.216 176.635,85.617 177.185 C 86.018 177.735,86.465 178.507,86.612 178.900 C 87.206 180.493,95.799 189.961,96.651 189.961 C 96.852 189.961,98.483 190.674,100.275 191.546 C 103.717 193.219,107.506 194.208,110.474 194.208 C 112.850 194.208,113.060 194.564,113.344 199.059 C 113.477 201.169,113.828 203.591,114.124 204.440 C 114.419 205.290,114.831 207.094,115.039 208.449 C 115.248 209.805,115.684 211.209,116.010 211.568 C 116.336 211.928,116.606 212.383,116.611 212.579 C 116.626 213.168,119.777 219.325,121.429 221.992 C 122.278 223.364,125.232 226.804,127.992 229.636 L 133.012 234.785 133.205 252.166 L 133.398 269.547 135.373 271.357 C 136.459 272.352,138.023 273.600,138.848 274.131 L 140.347 275.097 163.514 275.097 C 190.945 275.097,189.029 275.426,192.693 270.077 L 194.015 268.147 194.140 261.975 C 194.291 254.466,194.046 254.826,199.005 254.826 C 204.096 254.826,203.861 254.500,203.863 261.564 C 203.866 269.741,204.327 270.765,209.516 274.131 L 211.004 275.097 233.375 275.205 C 261.377 275.341,260.006 275.603,263.803 269.396 L 264.865 267.660 264.865 249.685 C 264.865 230.050,264.866 230.041,267.087 229.036 C 268.840 228.244,268.980 228.128,274.260 223.097 C 278.029 219.506,280.695 216.344,280.695 215.466 C 280.695 214.804,282.081 214.672,289.124 214.662 C 299.476 214.649,300.446 214.292,303.799 209.274 L 305.212 207.159 305.330 185.336 C 305.472 158.970,305.555 159.980,302.997 157.275 C 301.924 156.141,300.891 155.212,300.701 155.212 C 300.510 155.212,299.827 154.821,299.181 154.344 C 298.086 153.533,297.514 153.462,290.633 153.282 L 283.259 153.089 282.978 152.037 C 282.824 151.459,282.334 150.523,281.889 149.958 C 281.445 149.393,281.081 148.635,281.081 148.273 C 281.081 147.911,280.638 147.022,280.096 146.298 C 279.555 145.573,278.165 143.516,277.008 141.726 L 274.903 138.471 274.903 124.242 C 274.903 108.363,274.914 108.434,272.294 106.178 C 268.409 102.831,266.413 102.356,259.459 103.124 M268.561 104.779 C 274.103 108.391,273.899 107.638,274.131 125.361 L 274.324 140.105 275.386 141.213 C 275.970 141.822,276.448 142.475,276.448 142.664 C 276.448 143.076,278.199 145.751,279.355 147.104 C 279.808 147.635,280.389 148.808,280.646 149.710 C 280.902 150.613,281.267 151.351,281.457 151.351 C 281.646 151.351,281.911 151.698,282.046 152.121 C 282.623 153.942,283.077 154.054,289.892 154.060 C 294.790 154.064,296.563 154.199,297.297 154.622 C 297.828 154.929,298.697 155.371,299.228 155.606 C 300.819 156.308,302.740 158.373,303.711 160.425 L 304.626 162.355 304.624 183.977 C 304.622 202.222,304.534 205.749,304.059 206.564 C 303.749 207.095,303.244 208.050,302.936 208.687 C 300.906 212.892,298.180 213.881,288.581 213.891 C 279.969 213.901,280.143 213.849,278.652 216.804 C 277.686 218.720,267.711 228.185,266.659 228.185 C 264.276 228.185,264.305 227.955,264.093 248.649 C 263.916 265.886,263.842 267.551,263.224 268.234 C 262.852 268.644,262.548 269.140,262.548 269.335 C 262.547 270.014,259.645 272.791,258.138 273.556 C 256.678 274.297,255.825 274.324,234.200 274.324 L 211.776 274.324 210.232 273.275 C 205.194 269.851,204.633 268.658,204.633 261.377 C 204.633 254.081,204.922 254.440,199.068 254.440 C 193.156 254.440,193.523 253.986,193.368 261.507 C 193.288 265.418,193.090 267.695,192.814 267.872 C 192.579 268.023,192.101 268.702,191.754 269.381 C 190.884 271.078,189.515 272.488,187.767 273.484 C 185.839 274.584,142.742 275.017,140.927 273.954 C 140.396 273.644,139.527 273.177,138.996 272.916 C 134.231 270.579,133.979 269.497,133.968 251.399 C 133.956 232.610,134.414 234.529,128.522 228.548 C 125.895 225.881,123.224 222.774,122.587 221.645 C 121.950 220.515,121.105 219.247,120.710 218.826 C 120.315 218.405,119.820 217.429,119.611 216.656 C 119.402 215.883,118.916 214.903,118.530 214.479 C 118.145 214.054,117.626 212.925,117.378 211.969 C 117.129 211.014,116.674 209.839,116.367 209.360 C 115.748 208.394,115.088 204.040,115.070 200.800 C 115.063 199.647,114.899 198.170,114.705 197.518 C 114.511 196.866,114.204 195.811,114.023 195.174 C 113.730 194.143,113.440 193.959,111.383 193.500 C 110.113 193.216,108.292 192.737,107.336 192.436 C 106.380 192.135,105.045 191.889,104.369 191.890 C 102.886 191.892,101.181 191.286,100.611 190.553 C 100.381 190.258,99.488 189.833,98.627 189.608 C 97.372 189.281,96.269 188.372,93.085 185.044 C 87.473 179.176,87.398 179.086,87.089 177.799 C 86.935 177.162,86.477 176.330,86.069 175.950 C 85.662 175.570,85.328 174.782,85.328 174.198 C 85.328 173.614,84.967 172.448,84.526 171.607 C 83.197 169.075,82.915 152.664,84.158 150.188 C 85.223 148.064,86.689 146.450,88.224 145.711 C 88.861 145.404,89.817 144.900,90.347 144.590 C 93.058 143.009,100.772 146.175,100.772 148.868 C 100.772 149.115,101.163 149.813,101.641 150.420 C 102.463 151.464,102.520 151.958,102.703 159.642 L 102.896 167.761 104.502 169.917 C 107.205 173.546,108.128 174.131,111.153 174.131 C 114.642 174.131,115.028 173.788,115.467 170.290 C 115.679 168.601,116.088 167.150,116.472 166.726 C 116.828 166.333,117.253 165.029,117.416 163.828 C 117.578 162.628,118.043 161.197,118.447 160.649 C 118.852 160.101,119.393 159.015,119.650 158.236 C 119.907 157.456,120.368 156.610,120.676 156.354 C 120.984 156.099,121.236 155.657,121.236 155.372 C 121.236 155.086,121.718 154.282,122.308 153.585 C 123.653 151.995,125.483 149.285,125.483 148.883 C 125.483 148.025,137.965 135.979,139.085 135.754 C 139.762 135.619,141.160 134.682,142.317 133.588 C 143.604 132.370,144.699 131.660,145.287 131.660 C 145.800 131.660,146.664 131.248,147.208 130.744 C 147.751 130.240,148.828 129.710,149.601 129.565 C 150.374 129.420,151.101 129.052,151.218 128.747 C 151.335 128.443,152.151 128.003,153.032 127.769 C 153.913 127.535,155.018 126.987,155.489 126.551 C 156.046 126.035,157.058 125.694,158.385 125.574 C 159.669 125.458,160.733 125.109,161.257 124.631 C 161.781 124.153,162.995 123.755,164.539 123.556 C 165.886 123.381,167.770 122.892,168.726 122.468 C 169.722 122.026,171.863 121.580,173.745 121.423 C 176.214 121.217,177.198 120.969,177.718 120.420 C 178.190 119.921,178.983 119.679,180.227 119.653 C 183.816 119.577,191.757 118.946,194.788 118.496 C 200.037 117.717,211.450 118.134,215.637 119.258 C 216.486 119.486,218.091 119.677,219.203 119.682 C 221.501 119.692,224.342 120.298,226.097 121.151 C 229.161 122.640,230.815 121.876,236.240 116.462 C 239.659 113.051,241.397 111.583,242.017 111.583 C 242.549 111.583,243.706 110.824,244.913 109.683 C 246.018 108.638,247.441 107.659,248.075 107.508 C 248.709 107.356,250.210 106.826,251.410 106.330 C 252.610 105.834,254.782 105.260,256.236 105.056 C 259.534 104.592,262.607 103.934,262.903 103.627 C 263.423 103.089,267.123 103.843,268.561 104.779 M248.270 130.578 C 244.989 133.880,242.085 137.588,242.085 138.475 C 242.085 139.303,239.132 141.699,238.111 141.699 C 237.536 141.699,236.721 142.043,236.300 142.464 C 235.682 143.083,235.344 143.157,234.538 142.850 C 233.989 142.642,233.065 142.471,232.485 142.471 C 231.904 142.471,231.224 142.267,230.974 142.017 C 230.725 141.767,229.691 141.433,228.677 141.274 C 227.663 141.115,226.052 140.862,225.097 140.712 C 224.141 140.562,223.071 140.188,222.718 139.882 C 222.365 139.576,221.149 139.171,220.015 138.983 C 218.881 138.795,217.085 138.452,216.023 138.221 C 211.217 137.173,207.917 137.004,196.424 137.219 C 185.628 137.421,184.410 137.510,183.055 138.202 C 182.235 138.620,180.263 139.124,178.673 139.321 C 177.084 139.519,175.368 139.949,174.861 140.278 C 174.353 140.607,172.809 140.999,171.429 141.150 C 169.659 141.343,168.603 141.687,167.849 142.315 C 167.127 142.917,166.036 143.291,164.487 143.466 C 162.988 143.636,161.968 143.976,161.540 144.450 C 161.179 144.848,160.490 145.174,160.008 145.174 C 159.527 145.174,158.641 145.582,158.041 146.080 C 157.441 146.579,156.431 147.114,155.797 147.269 C 155.163 147.424,153.740 148.406,152.635 149.451 C 151.317 150.697,150.289 151.351,149.648 151.351 C 148.127 151.351,141.492 158.227,139.143 162.238 C 138.906 162.644,138.355 163.308,137.919 163.714 C 137.483 164.120,137.001 164.846,136.848 165.327 C 136.696 165.808,136.263 166.639,135.888 167.174 C 135.512 167.709,135.085 169.011,134.940 170.068 C 134.794 171.125,134.308 172.689,133.859 173.543 C 132.588 175.964,132.605 199.548,133.880 202.510 C 134.338 203.571,134.893 205.151,135.115 206.020 C 135.337 206.889,135.866 207.915,136.292 208.300 C 136.717 208.685,137.066 209.199,137.066 209.442 C 137.066 210.789,141.741 215.932,146.650 219.983 C 147.356 220.566,148.137 221.272,148.387 221.552 C 148.637 221.832,149.255 222.440,149.760 222.903 C 150.265 223.366,151.177 224.847,151.787 226.194 L 152.896 228.643 152.896 241.070 C 152.896 256.991,151.567 255.212,163.462 255.212 C 175.118 255.212,174.061 255.896,174.208 248.263 C 174.320 242.480,174.360 242.226,175.373 240.734 C 179.344 234.883,178.269 235.135,199.225 235.135 C 215.914 235.135,216.531 235.161,217.480 235.907 C 218.020 236.332,218.637 236.680,218.851 236.680 C 219.700 236.680,222.309 239.687,223.100 241.577 C 223.824 243.306,223.938 244.311,223.938 248.933 C 223.938 252.581,224.086 254.433,224.402 254.749 C 225.095 255.442,243.761 255.405,244.338 254.710 C 244.618 254.373,244.792 248.934,244.868 238.194 C 244.980 222.254,244.985 222.176,245.849 221.077 C 246.327 220.470,246.718 219.762,246.718 219.505 C 246.718 218.768,251.212 214.672,252.020 214.672 C 252.419 214.672,253.334 214.237,254.054 213.707 C 254.774 213.176,255.580 212.741,255.847 212.741 C 256.113 212.741,256.800 212.307,257.372 211.776 C 257.945 211.245,258.541 210.811,258.697 210.811 C 259.782 210.811,263.123 206.651,265.055 202.896 C 267.026 199.065,267.295 198.630,268.464 197.394 C 269.221 196.592,270.019 196.139,270.672 196.139 C 271.235 196.139,272.009 195.792,272.394 195.367 C 273.030 194.663,273.583 194.595,278.604 194.595 C 285.958 194.595,285.328 195.589,285.328 183.977 C 285.328 172.370,285.952 173.361,278.640 173.353 C 274.584 173.349,272.916 173.203,272.201 172.791 C 271.670 172.485,270.801 172.042,270.270 171.808 C 267.898 170.760,265.251 166.943,265.251 164.571 C 265.251 160.915,264.111 157.823,261.912 155.514 C 261.564 155.149,261.088 154.522,260.852 154.121 C 259.634 152.044,258.100 149.944,257.480 149.504 C 255.473 148.079,255.048 145.957,254.834 136.293 L 254.633 127.220 253.236 127.103 C 251.931 126.994,251.601 127.224,248.270 130.578 M254.054 135.836 C 254.054 147.785,254.033 147.719,259.489 153.488 C 259.897 153.921,260.232 154.458,260.232 154.683 C 260.232 154.909,260.597 155.423,261.043 155.827 C 262.072 156.758,262.934 158.412,262.934 159.454 C 262.934 159.897,263.235 160.717,263.602 161.277 C 264.009 161.899,264.373 163.507,264.536 165.405 L 264.803 168.514 266.713 170.261 C 270.630 173.845,270.828 173.913,277.992 174.131 L 284.363 174.324 284.363 183.977 L 284.363 193.629 278.378 193.878 C 268.919 194.272,267.851 194.850,264.622 201.315 C 263.800 202.961,262.905 204.718,262.634 205.221 C 261.889 206.601,255.994 211.883,254.889 212.160 C 254.357 212.294,253.509 212.728,253.005 213.125 C 252.500 213.522,251.590 213.956,250.981 214.089 C 249.815 214.345,246.859 217.320,245.174 219.932 L 244.208 221.429 244.015 237.838 L 243.822 254.247 234.363 254.247 L 224.903 254.247 224.667 248.069 C 224.536 244.672,224.297 241.323,224.134 240.628 C 223.853 239.428,220.497 235.907,219.634 235.907 C 219.436 235.907,218.795 235.553,218.210 235.121 C 217.169 234.351,216.744 234.337,198.124 234.445 L 179.102 234.556 177.292 236.531 C 173.674 240.481,173.600 240.695,173.370 247.876 L 173.166 254.247 163.948 254.351 C 157.657 254.421,154.567 254.319,154.217 254.029 C 153.812 253.693,153.680 250.700,153.589 239.833 L 153.475 226.062 152.313 224.517 C 151.137 222.954,148.322 220.159,143.478 215.745 C 141.214 213.681,139.858 211.984,137.649 208.449 C 137.434 208.105,136.925 207.352,136.517 206.774 C 136.109 206.197,135.631 204.914,135.455 203.924 C 135.279 202.934,134.954 201.168,134.733 200.000 C 133.721 194.662,133.535 191.727,133.753 184.500 C 133.912 179.245,134.152 176.509,134.536 175.591 C 134.840 174.863,135.297 173.063,135.551 171.593 C 135.806 170.122,136.325 168.520,136.706 168.032 C 137.087 167.544,137.506 166.654,137.638 166.054 C 137.770 165.453,138.303 164.562,138.823 164.074 C 139.343 163.585,139.768 163.005,139.768 162.784 C 139.768 162.322,139.821 162.264,145.375 156.486 C 148.205 153.542,149.898 152.080,150.675 151.910 C 151.302 151.772,152.756 150.808,153.904 149.768 C 155.053 148.727,156.315 147.876,156.709 147.876 C 157.103 147.876,157.871 147.525,158.417 147.096 C 159.629 146.142,162.280 145.174,163.678 145.174 C 164.246 145.174,164.905 144.979,165.143 144.741 C 166.419 143.465,171.637 141.880,177.220 141.071 C 178.176 140.933,179.178 140.646,179.447 140.434 C 180.182 139.855,182.742 139.381,187.259 138.986 C 200.654 137.816,201.310 137.787,205.735 138.174 C 214.294 138.921,221.160 140.039,222.195 140.853 C 222.854 141.372,224.088 141.695,226.151 141.888 C 228.078 142.068,229.508 142.425,230.154 142.884 C 231.338 143.727,235.670 143.990,236.965 143.297 C 237.417 143.055,238.211 142.857,238.729 142.857 C 239.803 142.857,242.088 140.496,243.629 137.793 C 244.897 135.570,252.460 127.799,253.356 127.799 C 254.007 127.799,254.054 128.342,254.054 135.836 M231.898 163.581 C 226.271 164.527,222.178 172.568,224.686 177.748 C 229.985 188.695,245.402 185.010,244.721 172.960 C 244.371 166.768,238.497 162.471,231.898 163.581 M238.793 165.665 C 240.735 166.761,241.249 167.283,242.762 169.693 C 247.247 176.841,238.220 186.335,230.692 182.387 C 228.292 181.128,227.086 180.062,226.375 178.571 C 226.071 177.934,225.564 176.979,225.247 176.448 C 224.507 175.205,224.759 171.325,225.638 170.446 C 225.977 170.107,226.255 169.620,226.255 169.363 C 226.255 168.167,229.808 165.401,232.625 164.404 C 234.023 163.909,236.625 164.441,238.793 165.665 " stroke="none" fill="#8c949c" fill-rule="evenodd"></path><path id="path3" d="M256.861 102.587 C 255.449 102.696,254.690 102.960,254.335 103.467 C 253.979 103.975,253.124 104.270,251.460 104.459 C 249.657 104.663,248.903 104.945,248.294 105.645 C 247.818 106.192,247.065 106.566,246.431 106.570 C 245.144 106.577,244.660 106.871,244.060 108.012 C 243.808 108.489,243.354 108.880,243.050 108.880 C 242.747 108.880,242.325 109.204,242.113 109.600 C 241.897 110.003,241.129 110.416,240.363 110.540 C 239.267 110.718,238.196 111.579,234.928 114.906 L 230.858 119.051 228.846 119.017 C 225.031 118.954,220.655 118.448,220.116 118.008 C 217.698 116.036,182.230 116.065,179.855 118.041 C 179.542 118.302,177.996 118.626,176.419 118.762 C 174.829 118.900,173.122 119.289,172.587 119.636 C 172.056 119.980,170.099 120.456,168.237 120.694 C 166.110 120.966,164.585 121.369,164.132 121.779 C 163.685 122.183,162.341 122.546,160.594 122.732 C 158.328 122.974,157.667 123.198,157.219 123.872 C 156.859 124.415,156.264 124.710,155.533 124.710 C 154.824 124.710,154.070 125.070,153.509 125.676 C 152.983 126.243,152.187 126.641,151.579 126.641 C 151.005 126.641,150.136 127.049,149.628 127.557 C 149.124 128.061,148.094 128.590,147.340 128.731 C 146.585 128.873,145.740 129.314,145.461 129.712 C 145.183 130.110,144.305 130.558,143.510 130.707 C 142.513 130.894,141.503 131.544,140.242 132.811 C 139.118 133.940,137.944 134.733,137.184 134.876 C 136.018 135.095,126.641 143.889,126.641 144.764 C 126.641 144.938,125.772 145.991,124.710 147.104 C 123.649 148.218,122.780 149.451,122.780 149.845 C 122.780 150.239,122.346 150.846,121.815 151.194 C 121.284 151.542,120.849 152.043,120.849 152.308 C 120.849 152.573,120.328 153.445,119.691 154.247 C 119.054 155.049,118.533 155.994,118.533 156.349 C 118.533 156.703,118.098 157.582,117.568 158.301 C 117.037 159.021,116.602 159.890,116.602 160.233 C 116.602 160.576,116.347 161.194,116.035 161.606 C 115.724 162.018,115.463 162.910,115.456 163.587 C 115.450 164.265,115.282 164.919,115.085 165.041 C 114.887 165.163,114.603 166.259,114.453 167.477 C 114.302 168.695,113.856 170.105,113.460 170.612 C 113.065 171.118,112.741 171.857,112.741 172.253 C 112.741 172.764,112.461 172.973,111.776 172.973 C 111.245 172.973,110.811 172.820,110.811 172.634 C 110.811 172.447,110.246 172.071,109.556 171.798 C 107.975 171.173,106.195 169.348,105.334 167.471 C 104.970 166.675,104.489 166.023,104.266 166.023 C 103.998 166.023,103.861 163.563,103.861 158.736 C 103.861 150.411,103.749 149.550,102.472 148.064 C 101.962 147.470,101.544 146.842,101.544 146.668 C 101.544 146.495,100.758 145.566,99.797 144.605 L 98.049 142.857 93.479 142.857 C 88.476 142.857,88.488 142.853,84.659 146.204 C 83.972 146.806,83.147 147.527,82.825 147.808 C 82.325 148.243,82.239 150.054,82.239 160.126 L 82.239 171.935 83.205 173.200 C 83.756 173.924,84.170 174.981,84.170 175.667 C 84.170 176.434,84.519 177.218,85.135 177.834 C 85.666 178.365,86.100 179.024,86.100 179.299 C 86.100 180.897,95.539 190.734,97.072 190.734 C 97.602 190.734,98.469 191.168,99.000 191.699 C 99.549 192.248,100.411 192.664,101.000 192.664 C 101.608 192.664,102.404 193.062,102.930 193.629 C 103.766 194.531,104.072 194.595,107.607 194.601 C 112.559 194.608,112.335 194.373,112.597 199.836 C 112.768 203.387,112.977 204.668,113.514 205.435 C 113.909 206.000,114.331 207.562,114.491 209.052 C 114.712 211.118,114.966 211.844,115.687 212.471 C 116.252 212.962,116.602 213.690,116.602 214.374 C 116.602 215.059,116.970 215.822,117.568 216.375 C 118.135 216.901,118.533 217.697,118.533 218.305 C 118.533 218.885,118.944 219.751,119.468 220.275 C 119.983 220.790,120.528 221.607,120.681 222.092 C 121.126 223.508,122.292 224.889,127.478 230.142 L 132.370 235.097 132.498 252.492 L 132.625 269.887 134.624 271.720 C 135.723 272.727,137.193 273.986,137.890 274.517 L 139.158 275.483 164.138 275.483 L 189.117 275.483 190.601 273.960 C 191.417 273.122,192.650 271.564,193.340 270.498 L 194.595 268.559 194.595 262.079 L 194.595 255.598 199.035 255.598 L 203.475 255.598 203.475 262.841 L 203.475 270.083 205.309 271.730 C 206.318 272.637,207.741 273.852,208.472 274.430 L 209.800 275.483 234.797 275.483 L 259.793 275.483 261.460 273.679 C 262.377 272.686,263.605 271.225,264.189 270.431 L 265.251 268.988 265.251 250.273 L 265.251 231.558 266.630 230.258 C 267.388 229.543,268.174 228.958,268.377 228.958 C 270.508 228.958,281.467 217.761,281.467 215.584 C 281.467 215.237,283.851 215.086,290.831 214.992 L 300.194 214.865 301.835 213.224 C 302.737 212.321,303.475 211.423,303.475 211.227 C 303.475 211.030,303.953 210.302,304.537 209.608 L 305.598 208.346 305.598 183.396 L 305.598 158.447 303.762 156.636 C 302.752 155.641,301.666 154.826,301.349 154.826 C 301.032 154.826,300.772 154.694,300.772 154.533 C 300.772 153.419,298.835 153.084,291.313 152.896 L 283.591 152.703 283.464 151.544 C 283.395 150.907,282.938 149.952,282.449 149.421 C 281.961 148.890,281.447 147.814,281.307 147.029 C 281.147 146.123,280.792 145.520,280.334 145.375 C 279.938 145.249,279.498 144.686,279.357 144.124 C 279.216 143.562,278.677 142.599,278.160 141.985 C 277.643 141.370,277.220 140.626,277.220 140.331 C 277.220 140.037,276.889 139.618,276.485 139.402 C 275.784 139.027,275.743 138.280,275.616 123.570 L 275.483 108.131 273.471 106.285 C 269.205 102.372,269.563 102.514,263.916 102.470 C 261.147 102.449,257.972 102.501,256.861 102.587 M269.243 103.904 C 275.011 107.492,274.903 107.106,274.903 124.242 L 274.903 138.471 277.008 141.726 C 278.165 143.516,279.555 145.573,280.096 146.298 C 280.638 147.022,281.081 147.911,281.081 148.273 C 281.081 148.635,281.445 149.393,281.889 149.958 C 282.334 150.523,282.824 151.459,282.978 152.037 L 283.259 153.089 290.633 153.282 C 297.514 153.462,298.086 153.533,299.181 154.344 C 299.827 154.821,300.510 155.212,300.701 155.212 C 300.891 155.212,301.924 156.141,302.997 157.275 C 305.555 159.980,305.472 158.970,305.330 185.336 L 305.212 207.159 303.799 209.274 C 300.446 214.292,299.476 214.649,289.124 214.662 C 282.081 214.672,280.695 214.804,280.695 215.466 C 280.695 216.344,278.029 219.506,274.260 223.097 C 268.980 228.128,268.840 228.244,267.087 229.036 C 264.866 230.041,264.865 230.050,264.865 249.685 L 264.865 267.660 263.803 269.396 C 260.006 275.603,261.377 275.341,233.375 275.205 L 211.004 275.097 209.516 274.131 C 204.327 270.765,203.866 269.741,203.863 261.564 C 203.861 254.500,204.096 254.826,199.005 254.826 C 194.046 254.826,194.291 254.466,194.140 261.975 L 194.015 268.147 192.693 270.077 C 189.029 275.426,190.945 275.097,163.514 275.097 L 140.347 275.097 138.848 274.131 C 138.023 273.600,136.459 272.352,135.373 271.357 L 133.398 269.547 133.205 252.166 L 133.012 234.785 127.992 229.636 C 125.232 226.804,122.278 223.364,121.429 221.992 C 119.777 219.325,116.626 213.168,116.611 212.579 C 116.606 212.383,116.336 211.928,116.010 211.568 C 115.684 211.209,115.248 209.805,115.039 208.449 C 114.831 207.094,114.419 205.290,114.124 204.440 C 113.828 203.591,113.477 201.169,113.344 199.059 C 113.060 194.564,112.850 194.208,110.474 194.208 C 107.506 194.208,103.717 193.219,100.275 191.546 C 98.483 190.674,96.852 189.961,96.651 189.961 C 95.799 189.961,87.206 180.493,86.612 178.900 C 86.465 178.507,86.018 177.735,85.617 177.185 C 85.216 176.635,84.720 175.438,84.515 174.525 C 84.310 173.613,83.801 172.433,83.384 171.902 C 82.521 170.805,82.222 152.626,83.020 149.754 C 83.746 147.140,88.553 143.613,91.778 143.328 C 96.575 142.904,98.866 144.105,101.857 148.610 L 103.282 150.756 103.475 158.679 L 103.668 166.602 105.063 168.726 C 109.218 175.048,113.694 175.206,114.716 169.068 C 114.942 167.712,115.432 166.168,115.804 165.637 C 116.176 165.106,116.576 163.828,116.692 162.798 C 116.808 161.767,117.245 160.460,117.663 159.894 C 118.082 159.328,118.553 158.434,118.710 157.908 C 118.976 157.017,119.627 155.890,121.463 153.144 C 121.869 152.537,122.583 151.408,123.050 150.634 C 125.275 146.949,136.346 135.641,138.224 135.135 C 138.978 134.932,140.275 134.070,141.106 133.219 C 141.936 132.368,143.215 131.475,143.947 131.233 C 144.680 130.991,145.888 130.380,146.631 129.876 C 147.375 129.371,148.213 128.958,148.492 128.958 C 148.772 128.958,149.641 128.523,150.423 127.992 C 151.205 127.461,152.135 127.027,152.489 127.027 C 152.842 127.027,153.708 126.602,154.413 126.082 C 155.117 125.562,156.191 125.028,156.800 124.894 C 157.408 124.760,158.005 124.491,158.126 124.295 C 158.248 124.099,158.695 123.938,159.120 123.938 C 159.902 123.938,161.991 123.373,166.216 122.018 C 167.490 121.610,169.402 121.158,170.463 121.015 C 171.525 120.872,172.980 120.515,173.696 120.223 C 174.412 119.930,175.422 119.691,175.941 119.691 C 176.460 119.691,177.209 119.518,177.605 119.306 C 180.669 117.666,212.516 116.379,215.092 117.791 C 215.965 118.269,217.587 118.535,223.455 119.160 C 224.781 119.301,226.062 119.652,226.301 119.940 C 226.560 120.252,227.510 120.463,228.654 120.463 L 230.572 120.463 235.266 115.861 C 238.158 113.027,240.392 111.151,241.081 110.978 C 241.697 110.824,243.133 109.855,244.271 108.824 C 245.409 107.793,246.662 106.950,247.056 106.950 C 247.450 106.950,248.195 106.618,248.711 106.212 C 249.227 105.806,250.650 105.289,251.873 105.063 C 253.096 104.836,254.565 104.389,255.137 104.069 C 257.828 102.563,266.916 102.456,269.243 103.904 M248.626 131.950 C 246.409 134.233,244.160 136.862,243.629 137.793 C 242.088 140.496,239.803 142.857,238.729 142.857 C 238.211 142.857,237.417 143.055,236.965 143.297 C 235.670 143.990,231.338 143.727,230.154 142.884 C 229.508 142.425,228.078 142.068,226.151 141.888 C 224.088 141.695,222.854 141.372,222.195 140.853 C 221.160 140.039,214.294 138.921,205.735 138.174 C 201.310 137.787,200.654 137.816,187.259 138.986 C 182.742 139.381,180.182 139.855,179.447 140.434 C 179.178 140.646,178.176 140.933,177.220 141.071 C 171.637 141.880,166.419 143.465,165.143 144.741 C 164.905 144.979,164.246 145.174,163.678 145.174 C 162.280 145.174,159.629 146.142,158.417 147.096 C 157.871 147.525,157.103 147.876,156.709 147.876 C 156.315 147.876,155.053 148.727,153.904 149.768 C 152.756 150.808,151.302 151.772,150.675 151.910 C 149.898 152.080,148.205 153.542,145.375 156.486 C 139.821 162.264,139.768 162.322,139.768 162.784 C 139.768 163.005,139.343 163.585,138.823 164.074 C 138.303 164.562,137.770 165.453,137.638 166.054 C 137.506 166.654,137.087 167.544,136.706 168.032 C 136.325 168.520,135.806 170.122,135.551 171.593 C 135.297 173.063,134.840 174.863,134.536 175.591 C 134.152 176.509,133.912 179.245,133.753 184.500 C 133.535 191.727,133.721 194.662,134.733 200.000 C 134.954 201.168,135.279 202.934,135.455 203.924 C 135.631 204.914,136.109 206.197,136.517 206.774 C 136.925 207.352,137.434 208.105,137.649 208.449 C 139.858 211.984,141.214 213.681,143.478 215.745 C 148.322 220.159,151.137 222.954,152.313 224.517 L 153.475 226.062 153.589 239.833 C 153.680 250.700,153.812 253.693,154.217 254.029 C 154.567 254.319,157.657 254.421,163.948 254.351 L 173.166 254.247 173.370 247.876 C 173.600 240.695,173.674 240.481,177.292 236.531 L 179.102 234.556 198.124 234.445 C 216.744 234.337,217.169 234.351,218.210 235.121 C 218.795 235.553,219.436 235.907,219.634 235.907 C 220.497 235.907,223.853 239.428,224.134 240.628 C 224.297 241.323,224.536 244.672,224.667 248.069 L 224.903 254.247 234.363 254.247 L 243.822 254.247 244.015 237.838 L 244.208 221.429 245.174 219.932 C 246.859 217.320,249.815 214.345,250.981 214.089 C 251.590 213.956,252.500 213.522,253.005 213.125 C 253.509 212.728,254.357 212.294,254.889 212.160 C 255.994 211.883,261.889 206.601,262.634 205.221 C 262.905 204.718,263.800 202.961,264.622 201.315 C 267.851 194.850,268.919 194.272,278.378 193.878 L 284.363 193.629 284.363 183.977 L 284.363 174.324 277.992 174.131 C 270.828 173.913,270.630 173.845,266.713 170.261 L 264.803 168.514 264.536 165.405 C 264.373 163.507,264.009 161.899,263.602 161.277 C 263.235 160.717,262.934 159.897,262.934 159.454 C 262.934 158.412,262.072 156.758,261.043 155.827 C 260.597 155.423,260.232 154.909,260.232 154.683 C 260.232 154.458,259.897 153.921,259.489 153.488 C 254.033 147.719,254.054 147.785,254.054 135.836 C 254.054 126.021,254.250 126.161,248.626 131.950 M253.723 138.418 L 253.861 148.651 255.888 150.595 C 257.003 151.664,257.915 152.702,257.915 152.901 C 257.915 153.101,258.349 153.549,258.880 153.897 C 259.411 154.244,259.846 154.746,259.846 155.011 C 259.846 155.276,260.367 156.148,261.004 156.950 C 261.833 157.993,262.162 158.825,262.162 159.877 C 262.162 160.888,262.393 161.508,262.903 161.865 C 263.474 162.265,263.700 163.045,263.890 165.265 C 264.234 169.285,264.378 169.800,265.232 170.071 C 265.645 170.202,266.088 170.639,266.216 171.042 C 266.344 171.445,266.788 171.883,267.203 172.015 C 267.618 172.146,268.511 172.720,269.186 173.289 C 270.394 174.306,270.532 174.328,277.196 174.517 L 283.977 174.710 283.977 183.977 L 283.977 193.243 276.627 193.436 L 269.277 193.629 267.877 195.030 C 267.108 195.800,266.213 196.942,265.890 197.568 C 265.566 198.193,265.030 198.931,264.697 199.207 C 264.365 199.483,264.093 200.108,264.093 200.597 C 264.093 201.085,263.658 202.001,263.127 202.632 C 262.597 203.263,262.162 204.033,262.162 204.343 C 262.162 204.989,257.782 209.653,257.175 209.653 C 256.955 209.653,256.490 210.087,256.142 210.618 C 255.755 211.209,255.146 211.583,254.571 211.583 C 254.055 211.583,253.224 211.992,252.725 212.491 C 252.225 212.991,251.186 213.502,250.417 213.627 C 249.141 213.834,245.946 216.548,245.946 217.424 C 245.946 217.577,245.468 218.269,244.884 218.963 L 243.822 220.224 243.711 237.139 L 243.599 254.054 234.394 254.054 L 225.189 254.054 225.032 246.731 L 224.874 239.407 223.085 237.754 C 218.258 233.294,219.509 233.485,196.234 233.656 L 178.761 233.784 176.929 235.782 C 172.953 240.118,173.181 239.449,173.045 247.184 L 172.924 254.054 163.682 254.054 L 154.440 254.054 154.408 241.602 C 154.370 227.166,154.188 224.955,152.971 224.102 C 152.505 223.775,152.124 223.254,152.124 222.943 C 152.124 222.632,151.693 222.181,151.166 221.941 C 150.639 221.701,150.109 221.192,149.988 220.811 C 149.867 220.429,149.455 220.018,149.074 219.896 C 148.692 219.775,148.183 219.245,147.943 218.718 C 147.703 218.192,147.301 217.761,147.049 217.761 C 146.312 217.761,140.312 211.452,139.578 209.906 C 139.210 209.129,138.754 208.494,138.566 208.494 C 138.378 208.494,138.224 208.226,138.224 207.898 C 138.224 207.569,137.746 206.831,137.162 206.257 C 136.205 205.315,136.073 204.851,135.824 201.544 C 135.462 196.735,135.149 194.953,134.506 194.026 C 133.756 192.946,133.757 183.113,134.507 182.036 C 134.799 181.617,135.136 180.145,135.256 178.764 C 135.825 172.246,136.247 169.902,136.995 169.099 C 137.411 168.652,137.857 167.760,137.986 167.116 C 138.115 166.473,138.655 165.429,139.187 164.797 C 139.719 164.165,140.154 163.420,140.154 163.142 C 140.154 162.864,140.589 162.352,141.120 162.005 C 141.651 161.657,142.085 161.216,142.085 161.025 C 142.085 159.963,150.296 152.491,151.844 152.143 C 152.733 151.943,153.525 151.586,153.604 151.351 C 153.682 151.115,153.998 150.715,154.305 150.461 C 154.611 150.207,155.245 149.631,155.713 149.181 C 156.181 148.730,157.172 148.249,157.915 148.111 C 158.658 147.974,159.527 147.519,159.846 147.100 C 160.265 146.549,161.093 146.270,162.856 146.086 C 164.500 145.914,165.437 145.618,165.752 145.169 C 166.007 144.805,167.165 144.303,168.324 144.055 C 169.483 143.806,170.761 143.305,171.163 142.940 C 171.714 142.441,172.766 142.246,175.426 142.147 C 178.513 142.032,179.080 141.900,179.930 141.098 C 180.855 140.226,181.300 140.160,189.004 139.751 C 194.975 139.434,197.264 139.177,197.714 138.773 C 198.534 138.034,203.591 138.013,204.199 138.745 C 204.621 139.253,206.475 139.463,216.080 140.091 C 219.172 140.294,220.171 140.505,220.823 141.096 C 221.344 141.567,222.532 141.948,224.038 142.125 C 225.352 142.280,226.489 142.595,226.566 142.825 C 226.643 143.055,227.264 143.243,227.947 143.243 C 228.630 143.243,229.378 143.432,229.608 143.662 C 230.768 144.822,240.330 144.130,240.734 142.857 C 240.861 142.454,241.296 142.020,241.699 141.892 C 242.102 141.764,242.539 141.320,242.671 140.905 C 242.803 140.490,243.309 139.673,243.796 139.091 C 244.283 138.508,244.805 137.639,244.955 137.159 C 245.203 136.366,252.754 128.318,253.337 128.225 C 253.473 128.203,253.647 132.790,253.723 138.418 M229.976 163.332 C 228.880 163.660,228.508 163.930,226.641 165.753 C 223.598 168.724,223.435 169.205,223.613 174.662 C 223.737 178.472,223.809 178.782,224.807 179.823 C 225.391 180.432,225.869 181.143,225.869 181.404 C 225.869 181.664,226.173 181.988,226.544 182.124 C 226.916 182.259,227.791 182.862,228.488 183.463 C 230.298 185.022,238.223 185.150,240.028 183.648 C 240.629 183.149,241.511 182.535,241.988 182.283 C 242.466 182.032,242.857 181.603,242.857 181.330 C 242.857 181.057,243.282 180.465,243.801 180.014 C 245.555 178.489,245.802 169.595,244.139 167.864 C 240.615 164.196,240.049 163.733,238.569 163.309 C 236.993 162.857,231.512 162.871,229.976 163.332 M240.000 165.067 C 249.019 171.053,244.629 184.609,233.839 184.096 C 223.568 183.608,220.187 170.825,228.809 165.083 C 232.174 162.842,236.639 162.836,240.000 165.067 " stroke="none" fill="#c4c4cc" fill-rule="evenodd"></path><path id="path4" d="" stroke="none" fill="#100cce8" fill-rule="evenodd"></path></g></svg>